<svg xmlns="http://www.w3.org/2000/svg" width="1600" height="900" viewBox="0 0 1600 900" role="img" aria-labelledby="diagram-title diagram-desc">
  <title id="diagram-title">機加X 智慧旅遊組合平台架構圖</title>
  <desc id="diagram-desc">左側為使用者存取，中央為分成應用情境、核心模組、資料層與基礎建設的機加X平台，右側為整合系統。</desc>

  <defs>
    <style>
      .font { font-family: "PingFang TC", "Noto Sans TC", "Microsoft JhengHei", Arial, sans-serif; }
      .ink { fill: #123b82; }
      .muted { fill: #61739a; }
      .title { font-size: 26px; font-weight: 700; }
      .side-title { font-size: 17px; font-weight: 700; }
      .section-title { font-size: 17px; font-weight: 700; }
      .tile-title { font-size: 15px; font-weight: 700; }
      .tile-small { font-size: 11px; font-weight: 400; }
      .side-label { font-size: 14px; font-weight: 600; }
      .connector { font-size: 12px; font-weight: 700; letter-spacing: .2px; }
      .icon { fill: none; stroke: #1f52ac; stroke-width: 2; stroke-linecap: round; stroke-linejoin: round; }
      .tile { fill: #ffffff; stroke: #86a7e7; stroke-width: 1.4; }
      .tile-soft { fill: #f7faff; stroke: #86a7e7; stroke-width: 1.4; }
      .section { fill: #f4f7fd; stroke: #2f63c7; stroke-width: 1.5; }
      .future { fill: #fafcff; stroke: #7e98c9; stroke-width: 1.4; stroke-dasharray: 5 4; }
    </style>

    <marker id="arrow-start" viewBox="0 0 10 10" refX="1" refY="5" markerWidth="7" markerHeight="7" orient="auto-start-reverse">
      <path d="M10 0 L0 5 L10 10 Z" fill="#2f63c7"/>
    </marker>
    <marker id="arrow-end" viewBox="0 0 10 10" refX="9" refY="5" markerWidth="7" markerHeight="7" orient="auto">
      <path d="M0 0 L10 5 L0 10 Z" fill="#2f63c7"/>
    </marker>
    <marker id="flow-end" viewBox="0 0 10 10" refX="9" refY="5" markerWidth="5" markerHeight="5" orient="auto">
      <path d="M0 0 L10 5 L0 10 Z" fill="#6e8fd6"/>
    </marker>

    <symbol id="i-lock" viewBox="0 0 32 32">
      <rect class="icon" x="7" y="14" width="18" height="14" rx="3"/>
      <path class="icon" d="M11 14V10a5 5 0 0 1 10 0v4"/>
      <circle cx="16" cy="21" r="1.7" fill="#1f52ac"/>
    </symbol>
    <symbol id="i-browser" viewBox="0 0 48 48">
      <rect class="icon" x="8" y="10" width="32" height="23" rx="3"/>
      <path class="icon" d="M8 16h32M12 13h1M16 13h1M20 13h1M5 38h38M13 33l-3 5M35 33l3 5"/>
    </symbol>
    <symbol id="i-desktop" viewBox="0 0 48 48">
      <rect class="icon" x="7" y="8" width="34" height="25" rx="3"/>
      <path class="icon" d="M18 40h12M24 33v7M13 14h22M13 19h15"/>
    </symbol>
    <symbol id="i-api" viewBox="0 0 48 48">
      <path class="icon" d="M18 11L7 24l11 13M30 11l11 13-11 13M27 7L21 41"/>
    </symbol>
    <symbol id="i-mobile" viewBox="0 0 48 48">
      <rect class="icon" x="14" y="5" width="20" height="38" rx="5"/>
      <path class="icon" d="M21 9h6M22 38h4"/>
    </symbol>
    <symbol id="i-box" viewBox="0 0 48 48">
      <path class="icon" d="M8 15l16-8 16 8-16 8-16-8zM8 15v19l16 8 16-8V15M24 23v19"/>
      <path class="icon" d="M18 10l16 8"/>
    </symbol>
    <symbol id="i-price" viewBox="0 0 48 48">
      <path class="icon" d="M8 12h14M8 24h24M8 36h32"/>
      <circle class="icon" cx="28" cy="12" r="5"/>
      <circle class="icon" cx="15" cy="24" r="5"/>
      <circle class="icon" cx="30" cy="36" r="5"/>
    </symbol>
    <symbol id="i-search" viewBox="0 0 48 48">
      <circle class="icon" cx="20" cy="20" r="11"/>
      <path class="icon" d="M28 28l12 12M14 20h12M20 14v12"/>
    </symbol>
    <symbol id="i-payment" viewBox="0 0 48 48">
      <rect class="icon" x="5" y="10" width="38" height="28" rx="4"/>
      <path class="icon" d="M5 18h38M11 31h10"/>
    </symbol>
    <symbol id="i-ticket" viewBox="0 0 48 48">
      <path class="icon" d="M7 14h34v8a5 5 0 0 0 0 10v8H7v-8a5 5 0 0 0 0-10v-8zM18 16v22"/>
      <path class="icon" d="M26 22h8M26 28h8M26 34h5"/>
    </symbol>
    <symbol id="i-mail" viewBox="0 0 48 48">
      <rect class="icon" x="5" y="10" width="38" height="28" rx="4"/>
      <path class="icon" d="M6 13l18 14 18-14M7 36l13-12M41 36L28 24"/>
    </symbol>
    <symbol id="i-rules" viewBox="0 0 48 48">
      <rect class="icon" x="9" y="6" width="30" height="36" rx="3"/>
      <path class="icon" d="M16 15h16M16 23h10M16 31h13M31 27l3 3 6-7"/>
    </symbol>
    <symbol id="i-compose" viewBox="0 0 48 48">
      <rect class="icon" x="5" y="7" width="15" height="15" rx="2"/>
      <rect class="icon" x="28" y="7" width="15" height="15" rx="2"/>
      <rect class="icon" x="16" y="29" width="16" height="14" rx="2"/>
      <path class="icon" d="M13 22v4h22v-4M24 26v3"/>
    </symbol>
    <symbol id="i-gauge" viewBox="0 0 48 48">
      <path class="icon" d="M8 34a16 16 0 1 1 32 0M24 34l9-11"/>
      <circle cx="24" cy="34" r="2.5" fill="#1f52ac"/>
      <path class="icon" d="M12 34h24"/>
    </symbol>
    <symbol id="i-order" viewBox="0 0 48 48">
      <path class="icon" d="M7 9h6l4 22h21l4-15H16M20 37a3 3 0 1 0 0 6 3 3 0 0 0 0-6zM34 37a3 3 0 1 0 0 6 3 3 0 0 0 0-6z"/>
    </symbol>
    <symbol id="i-plane" viewBox="0 0 48 48">
      <path class="icon" d="M43 25L27 21 24 7l-5-2-2 14-8-2-3-5-3 1 2 8 14 6-6 12 4 2 10-11 10 4c4 1 7-1 6-3z"/>
    </symbol>
    <symbol id="i-workflow" viewBox="0 0 48 48">
      <circle class="icon" cx="10" cy="11" r="5"/>
      <circle class="icon" cx="38" cy="11" r="5"/>
      <circle class="icon" cx="24" cy="38" r="5"/>
      <path class="icon" d="M15 11h18M12 16l9 17M36 16L27 33"/>
    </symbol>
    <symbol id="i-folder" viewBox="0 0 48 48">
      <path class="icon" d="M5 12h15l5 6h18v22H5V12z"/>
    </symbol>
    <symbol id="i-hotel" viewBox="0 0 48 48">
      <path class="icon" d="M8 42V10h24v32M32 22h8v20M15 17h4M24 17h4M15 25h4M24 25h4M15 33h4M24 33h4M4 42h40"/>
    </symbol>
    <symbol id="i-database" viewBox="0 0 48 48">
      <ellipse class="icon" cx="24" cy="10" rx="16" ry="6"/>
      <path class="icon" d="M8 10v10c0 3 7 6 16 6s16-3 16-6V10M8 20v10c0 3 7 6 16 6s16-3 16-6V20M8 30v8c0 3 7 6 16 6s16-3 16-6v-8"/>
    </symbol>
    <symbol id="i-cloud" viewBox="0 0 48 48">
      <path class="icon" d="M13 38h24a8 8 0 0 0 1-16 14 14 0 0 0-27-3A10 10 0 0 0 13 38z"/>
    </symbol>
    <symbol id="i-building" viewBox="0 0 48 48">
      <path class="icon" d="M8 42V12l16-7 16 7v30M4 42h40M15 17h4M24 17h4M15 25h4M24 25h4M15 33h4M24 33h4M33 17h3M33 25h3M33 33h3"/>
    </symbol>
    <symbol id="i-network" viewBox="0 0 48 48">
      <circle class="icon" cx="24" cy="10" r="5"/>
      <circle class="icon" cx="10" cy="37" r="5"/>
      <circle class="icon" cx="38" cy="37" r="5"/>
      <path class="icon" d="M22 15L12 32M26 15l10 17M15 37h18"/>
    </symbol>
    <symbol id="i-grid" viewBox="0 0 48 48">
      <rect class="icon" x="7" y="7" width="13" height="13" rx="2"/>
      <rect class="icon" x="28" y="7" width="13" height="13" rx="2"/>
      <rect class="icon" x="7" y="28" width="13" height="13" rx="2"/>
      <rect class="icon" x="28" y="28" width="13" height="13" rx="2"/>
    </symbol>
  </defs>

  <rect width="1600" height="900" fill="#ffffff"/>

  <!-- Left access column -->
  <rect x="35" y="75" width="200" height="780" rx="14" fill="#f6f9ff" stroke="#b7c9eb" stroke-width="1.5"/>
  <rect x="48" y="45" width="174" height="38" rx="19" fill="#173f8c"/>
  <text x="135" y="70" text-anchor="middle" class="font side-title" fill="#ffffff">使用者存取</text>

  <use href="#i-browser" x="104" y="132" width="62" height="62"/>
  <text x="135" y="215" text-anchor="middle" class="font side-label ink">Web Browser</text>
  <use href="#i-desktop" x="104" y="292" width="62" height="62"/>
  <text x="135" y="375" text-anchor="middle" class="font side-label ink">Desktop</text>
  <use href="#i-api" x="104" y="452" width="62" height="62"/>
  <text x="135" y="535" text-anchor="middle" class="font side-label ink">API Client</text>
  <use href="#i-mobile" x="104" y="612" width="62" height="62"/>
  <text x="135" y="695" text-anchor="middle" class="font side-label ink">Mobile App</text>

  <!-- Left connector -->
  <use href="#i-lock" x="264" y="392" width="32" height="32"/>
  <line x1="245" y1="450" x2="315" y2="450" stroke="#2f63c7" stroke-width="2.2" marker-start="url(#arrow-start)" marker-end="url(#arrow-end)"/>
  <text x="280" y="478" text-anchor="middle" class="font connector ink">HTTPS/TLS</text>

  <!-- Center platform boundary and title -->
  <rect x="315" y="55" width="970" height="800" rx="16" fill="#fbfcff" stroke="#4574d3" stroke-width="1.8" stroke-dasharray="8 6"/>
  <rect x="510" y="32" width="580" height="42" rx="21" fill="#173f8c"/>
  <text x="800" y="60" text-anchor="middle" class="font title" fill="#ffffff">機加X 智慧旅遊組合平台</text>

  <!-- Application scenarios -->
  <rect x="340" y="88" width="920" height="222" rx="12" class="section"/>
  <text x="800" y="118" text-anchor="middle" class="font section-title ink">應用情境</text>

  <g>
    <rect x="357" y="137" width="135" height="140" rx="9" class="tile"/>
    <use href="#i-box" x="402" y="150" width="45" height="45"/>
    <text x="424.5" y="218" text-anchor="middle" class="font tile-title ink">商品上架</text>
    <text x="424.5" y="239" text-anchor="middle" class="font tile-small muted">Product Setup</text>

    <line x1="495" y1="207" x2="503" y2="207" stroke="#6e8fd6" stroke-width="1.6" marker-end="url(#flow-end)"/>

    <rect x="507" y="137" width="135" height="140" rx="9" class="tile"/>
    <use href="#i-price" x="552" y="150" width="45" height="45"/>
    <text x="574.5" y="214" text-anchor="middle" class="font tile-title ink">組合變價引擎</text>
    <text x="574.5" y="236" text-anchor="middle" class="font tile-small muted">Dynamic Pricing</text>

    <line x1="645" y1="207" x2="653" y2="207" stroke="#6e8fd6" stroke-width="1.6" marker-end="url(#flow-end)"/>

    <rect x="657" y="137" width="135" height="140" rx="9" class="tile" aria-label="前台搜尋／訂購"/>
    <use href="#i-search" x="702" y="150" width="45" height="45"/>
    <text x="724.5" y="211" text-anchor="middle" class="font tile-title ink">
      <tspan x="724.5" dy="0">前台搜尋</tspan><tspan x="724.5" dy="19">／訂購</tspan>
    </text>
    <text x="724.5" y="254" text-anchor="middle" class="font tile-small muted">Search &amp; Booking</text>

    <line x1="795" y1="207" x2="803" y2="207" stroke="#6e8fd6" stroke-width="1.6" marker-end="url(#flow-end)"/>

    <rect x="807" y="137" width="135" height="140" rx="9" class="tile"/>
    <use href="#i-payment" x="852" y="150" width="45" height="45"/>
    <text x="874.5" y="218" text-anchor="middle" class="font tile-title ink">付款</text>
    <text x="874.5" y="239" text-anchor="middle" class="font tile-small muted">Payment</text>

    <line x1="945" y1="207" x2="953" y2="207" stroke="#6e8fd6" stroke-width="1.6" marker-end="url(#flow-end)"/>

    <rect x="957" y="137" width="135" height="140" rx="9" class="tile" aria-label="機票開票／行程確認"/>
    <use href="#i-ticket" x="1002" y="147" width="45" height="45"/>
    <text x="1024.5" y="208" text-anchor="middle" class="font tile-title ink">
      <tspan x="1024.5" dy="0">機票開票／</tspan><tspan x="1024.5" dy="19">行程確認</tspan>
    </text>
    <text x="1024.5" y="253" text-anchor="middle" class="font tile-small muted">Ticketing</text>

    <line x1="1095" y1="207" x2="1103" y2="207" stroke="#6e8fd6" stroke-width="1.6" marker-end="url(#flow-end)"/>

    <rect x="1107" y="137" width="135" height="140" rx="9" class="tile"/>
    <use href="#i-mail" x="1152" y="147" width="45" height="45"/>
    <text x="1174.5" y="208" text-anchor="middle" class="font tile-title ink">
      <tspan x="1174.5" dy="0">行程確認單</tspan><tspan x="1174.5" dy="19">寄送</tspan>
    </text>
    <text x="1174.5" y="253" text-anchor="middle" class="font tile-small muted">Delivery</text>
  </g>

  <!-- Core modules -->
  <rect x="340" y="325" width="920" height="240" rx="12" class="section"/>
  <text x="800" y="356" text-anchor="middle" class="font section-title ink">核心模組</text>

  <g>
    <rect x="365" y="375" width="195" height="76" rx="9" class="tile"/>
    <use href="#i-rules" x="380" y="389" width="44" height="44"/>
    <text x="440" y="407" class="font tile-title ink">商品與規則管理</text>
    <text x="440" y="428" class="font tile-small muted">Product &amp; Rules</text>

    <rect x="590" y="375" width="195" height="76" rx="9" class="tile"/>
    <use href="#i-compose" x="605" y="389" width="44" height="44"/>
    <text x="665" y="407" class="font tile-title ink">搜尋與動態組合</text>
    <text x="665" y="428" class="font tile-small muted">Search &amp; Packaging</text>

    <rect x="815" y="375" width="195" height="76" rx="9" class="tile" aria-label="即時報價與可售檢查"/>
    <use href="#i-gauge" x="830" y="389" width="44" height="44"/>
    <text x="890" y="402" class="font tile-title ink">即時報價與</text>
    <text x="890" y="422" class="font tile-title ink">可售檢查</text>
    <text x="890" y="440" class="font tile-small muted">Pricing &amp; Availability</text>

    <rect x="1040" y="375" width="195" height="76" rx="9" class="tile"/>
    <use href="#i-order" x="1055" y="389" width="44" height="44"/>
    <text x="1115" y="407" class="font tile-title ink">訂單管理</text>
    <text x="1115" y="428" class="font tile-small muted">Order Management</text>

    <rect x="365" y="468" width="195" height="76" rx="9" class="tile"/>
    <use href="#i-payment" x="380" y="482" width="44" height="44"/>
    <text x="440" y="500" class="font tile-title ink">金流管理</text>
    <text x="440" y="521" class="font tile-small muted">Payment Management</text>

    <rect x="590" y="468" width="195" height="76" rx="9" class="tile"/>
    <use href="#i-plane" x="605" y="482" width="44" height="44"/>
    <text x="665" y="500" class="font tile-title ink">訂位／開票服務</text>
    <text x="665" y="521" class="font tile-small muted">Booking &amp; Ticketing</text>

    <rect x="815" y="468" width="195" height="76" rx="9" class="tile"/>
    <use href="#i-mail" x="830" y="482" width="44" height="44"/>
    <text x="890" y="500" class="font tile-title ink">通知與文件服務</text>
    <text x="890" y="521" class="font tile-small muted">Notification &amp; Document</text>

    <rect x="1040" y="468" width="195" height="76" rx="9" class="tile"/>
    <use href="#i-workflow" x="1055" y="482" width="44" height="44"/>
    <text x="1115" y="500" class="font tile-title ink">整合 API</text>
    <text x="1115" y="521" class="font tile-small muted">API Integration</text>
  </g>

  <!-- Data layer -->
  <rect x="340" y="580" width="920" height="130" rx="12" class="section"/>
  <text x="800" y="610" text-anchor="middle" class="font section-title ink">資料層</text>

  <g>
    <rect x="365" y="625" width="195" height="65" rx="9" class="tile"/>
    <use href="#i-folder" x="380" y="635" width="42" height="42"/>
    <text x="436" y="654" class="font tile-title ink">Clicugo 行程</text>
    <text x="436" y="674" class="font tile-small muted">Itinerary Data</text>

    <rect x="590" y="625" width="195" height="65" rx="9" class="future"/>
    <use href="#i-hotel" x="605" y="635" width="42" height="42"/>
    <text x="661" y="654" class="font tile-title ink">飯店／票券</text>
    <rect x="735" y="632" width="38" height="20" rx="10" fill="#dfe8f9"/>
    <text x="754" y="646" text-anchor="middle" class="font tile-small ink">未來</text>
    <text x="661" y="674" class="font tile-small muted">Hotel &amp; Activities</text>

    <rect x="815" y="625" width="195" height="65" rx="9" class="tile"/>
    <use href="#i-plane" x="830" y="635" width="42" height="42"/>
    <text x="886" y="654" class="font tile-title ink">Amadeus API</text>
    <text x="886" y="674" class="font tile-small muted">Flight Data</text>

    <rect x="1040" y="625" width="195" height="65" rx="9" class="future" aria-label="Sabre／航司 NDC（未來）"/>
    <use href="#i-plane" x="1055" y="635" width="42" height="42"/>
    <text x="1111" y="651" class="font tile-title ink">Sabre</text>
    <text x="1111" y="673" class="font tile-title ink">航司 NDC</text>
    <rect x="1185" y="632" width="38" height="20" rx="10" fill="#dfe8f9"/>
    <text x="1204" y="646" text-anchor="middle" class="font tile-small ink">未來</text>
  </g>

  <!-- Infrastructure -->
  <rect x="340" y="725" width="920" height="105" rx="12" class="section"/>
  <text x="510" y="757" text-anchor="middle" class="font section-title ink">基礎建設</text>
  <use href="#i-cloud" x="370" y="760" width="52" height="52"/>
  <text x="435" y="785" class="font tile-title ink">Cloud Native Infrastructure</text>
  <text x="435" y="805" class="font tile-small muted">Scalable · Resilient · Multi-Cloud</text>

  <rect x="780" y="759" width="130" height="48" rx="24" class="tile"/>
  <text x="845" y="789" text-anchor="middle" class="font tile-title ink">AWS</text>
  <rect x="930" y="759" width="130" height="48" rx="24" class="tile"/>
  <text x="995" y="789" text-anchor="middle" class="font tile-title ink">GCP</text>
  <rect x="1080" y="759" width="150" height="48" rx="24" class="tile"/>
  <text x="1155" y="789" text-anchor="middle" class="font tile-title ink">Azure</text>

  <!-- Right connector -->
  <use href="#i-lock" x="1304" y="392" width="32" height="32"/>
  <line x1="1285" y1="450" x2="1355" y2="450" stroke="#2f63c7" stroke-width="2.2" marker-start="url(#arrow-start)" marker-end="url(#arrow-end)"/>
  <text x="1320" y="478" text-anchor="middle" class="font connector ink">API</text>

  <!-- Right integration column -->
  <rect x="1365" y="75" width="200" height="780" rx="14" fill="#f6f9ff" stroke="#b7c9eb" stroke-width="1.5"/>
  <rect x="1378" y="45" width="174" height="38" rx="19" fill="#173f8c"/>
  <text x="1465" y="70" text-anchor="middle" class="font side-title" fill="#ffffff">整合系統</text>

  <path d="M1392 136h18v558h-18M1410 160h15M1410 249h15M1410 338h15M1410 427h15M1410 516h15M1410 605h15M1410 694h15" fill="none" stroke="#6e8fd6" stroke-width="1.8"/>

  <use href="#i-folder" x="1425" y="133" width="38" height="38"/>
  <text x="1474" y="158" class="font side-label ink">Clicugo</text>

  <use href="#i-payment" x="1425" y="222" width="38" height="38"/>
  <text x="1474" y="241" class="font side-label ink">線上金流</text>
  <text x="1470" y="258" class="font tile-small muted">銀行／第三方支付</text>

  <use href="#i-mail" x="1425" y="311" width="38" height="38"/>
  <text x="1474" y="336" class="font side-label ink">Email 服務</text>

  <use href="#i-building" x="1425" y="400" width="38" height="38"/>
  <text x="1474" y="425" class="font side-label ink">ERP</text>

  <use href="#i-network" x="1425" y="489" width="38" height="38"/>
  <text x="1474" y="514" class="font side-label ink">MCP</text>

  <use href="#i-database" x="1425" y="578" width="38" height="38"/>
  <text x="1474" y="603" class="font side-label ink">Database</text>

  <use href="#i-grid" x="1425" y="667" width="38" height="38"/>
  <text x="1474" y="692" class="font side-label ink">其他系統</text>

  <!-- Footer note -->
  <g transform="translate(430 865)">
    <path d="M0 0l12-5 12 5v10c0 8-5 14-12 18C5 24 0 18 0 10V0z" fill="none" stroke="#2f63c7" stroke-width="1.5" transform="scale(.65)"/>
    <text x="25" y="11" class="font tile-small muted">Cloud Native 架構支援彈性擴展、多雲部署與企業系統安全整合</text>
  </g>
</svg>
